<?xml version="1.0" encoding="UTF-8"?>
<svg xmlns="http://www.w3.org/2000/svg" xmlns:xlink="http://www.w3.org/1999/xlink" viewBox="0 0 1024 1024">
  <defs>
    <style>
      .cls-1 {
        fill: #434343;
      }

      .cls-2 {
        fill: url(#linear-gradient-2);
      }

      .cls-3 {
        filter: url(#drop-shadow-6);
      }

      .cls-4 {
        filter: url(#drop-shadow-5);
      }

      .cls-5 {
        fill: #fff;
      }

      .cls-6, .cls-7, .cls-8, .cls-9, .cls-10 {
        stroke-miterlimit: 10;
      }

      .cls-6, .cls-11, .cls-12, .cls-8 {
        fill: #7d1514;
      }

      .cls-6, .cls-8, .cls-9 {
        stroke: #fff;
      }

      .cls-6, .cls-9 {
        stroke-width: 11px;
      }

      .cls-13 {
        fill: #45403d;
      }

      .cls-14 {
        letter-spacing: 0em;
      }

      .cls-7 {
        stroke: #41413f;
      }

      .cls-7, .cls-10 {
        fill: none;
      }

      .cls-15 {
        filter: url(#drop-shadow-7);
      }

      .cls-16 {
        fill: #2d2d2f;
      }

      .cls-17 {
        filter: url(#drop-shadow-1);
      }

      .cls-11 {
        filter: url(#drop-shadow-9);
      }

      .cls-11, .cls-8 {
        font-family: Bahnschrift, Bahnschrift;
        font-size: 35px;
        font-variation-settings: 'wght' 400, 'wdth' 100;
      }

      .cls-8 {
        filter: url(#drop-shadow-8);
        stroke-width: 5px;
      }

      .cls-18 {
        letter-spacing: .04em;
      }

      .cls-19 {
        fill: #454442;
      }

      .cls-20 {
        filter: url(#drop-shadow-2);
      }

      .cls-20, .cls-21, .cls-22 {
        fill: #343432;
      }

      .cls-23 {
        fill: #2a2c2b;
      }

      .cls-24 {
        fill: #323232;
      }

      .cls-21 {
        filter: url(#drop-shadow-3);
      }

      .cls-25 {
        letter-spacing: .02em;
      }

      .cls-22 {
        filter: url(#drop-shadow-4);
      }

      .cls-10 {
        stroke: #231f20;
      }

      .cls-26 {
        fill: url(#linear-gradient);
      }

      .cls-27 {
        fill: #30302e;
      }

      .cls-28 {
        fill: #343434;
      }

      .cls-29 {
        fill: #383637;
      }
    </style>
    <filter id="drop-shadow-1" x="230" y="195.51" width="515" height="613.49" filterUnits="userSpaceOnUse">
      <feOffset dx="3" dy="4"/>
      <feGaussianBlur result="blur" stdDeviation="1"/>
      <feFlood flood-color="#000" flood-opacity=".96"/>
      <feComposite in2="blur" operator="in"/>
      <feComposite in="SourceGraphic"/>
    </filter>
    <linearGradient id="linear-gradient" x1="749.9" y1="177.94" x2="215.29" y2="933.24" gradientUnits="userSpaceOnUse">
      <stop offset="0" stop-color="#fff"/>
      <stop offset=".33" stop-color="#f69180"/>
      <stop offset=".83" stop-color="#000"/>
    </linearGradient>
    <linearGradient id="linear-gradient-2" x1="587.4" y1="340.37" x2="347.14" y2="673.25" gradientUnits="userSpaceOnUse">
      <stop offset="0" stop-color="#df2027"/>
      <stop offset=".33" stop-color="#801216"/>
      <stop offset=".59" stop-color="#3b080a"/>
      <stop offset=".78" stop-color="#100202"/>
      <stop offset=".87" stop-color="#000"/>
    </linearGradient>
    <filter id="drop-shadow-2" x="170" y="173" width="691" height="705" filterUnits="userSpaceOnUse">
      <feOffset dx="3" dy="4"/>
      <feGaussianBlur result="blur-2" stdDeviation="3"/>
      <feFlood flood-color="#000" flood-opacity=".96"/>
      <feComposite in2="blur-2" operator="in"/>
      <feComposite in="SourceGraphic"/>
    </filter>
    <filter id="drop-shadow-3" x="172" y="595" width="103" height="136" filterUnits="userSpaceOnUse">
      <feOffset dx="3" dy="4"/>
      <feGaussianBlur result="blur-3" stdDeviation="3"/>
      <feFlood flood-color="#000" flood-opacity=".96"/>
      <feComposite in2="blur-3" operator="in"/>
      <feComposite in="SourceGraphic"/>
    </filter>
    <filter id="drop-shadow-4" x="232" y="595" width="60" height="98" filterUnits="userSpaceOnUse">
      <feOffset dx="3" dy="4"/>
      <feGaussianBlur result="blur-4" stdDeviation="3"/>
      <feFlood flood-color="#000" flood-opacity=".96"/>
      <feComposite in2="blur-4" operator="in"/>
      <feComposite in="SourceGraphic"/>
    </filter>
    <filter id="drop-shadow-5" x="39" y="468" width="947" height="151" filterUnits="userSpaceOnUse">
      <feOffset dx="8" dy="2"/>
      <feGaussianBlur result="blur-5" stdDeviation="4"/>
      <feFlood flood-color="#000" flood-opacity=".87"/>
      <feComposite in2="blur-5" operator="in"/>
      <feComposite in="SourceGraphic"/>
    </filter>
    <filter id="drop-shadow-6" x="26" y="463" width="968" height="181" filterUnits="userSpaceOnUse">
      <feOffset dx="8" dy="2"/>
      <feGaussianBlur result="blur-6" stdDeviation="4"/>
      <feFlood flood-color="#000" flood-opacity=".87"/>
      <feComposite in2="blur-6" operator="in"/>
      <feComposite in="SourceGraphic"/>
    </filter>
    <filter id="drop-shadow-7" x="39" y="468" width="947" height="151" filterUnits="userSpaceOnUse">
      <feOffset dx="8" dy="2"/>
      <feGaussianBlur result="blur-7" stdDeviation="4"/>
      <feFlood flood-color="#000" flood-opacity=".87"/>
      <feComposite in2="blur-7" operator="in"/>
      <feComposite in="SourceGraphic"/>
    </filter>
    <filter id="drop-shadow-8" filterUnits="userSpaceOnUse">
      <feOffset dx="2" dy="1"/>
      <feGaussianBlur result="blur-8" stdDeviation="1"/>
      <feFlood flood-color="#000" flood-opacity=".96"/>
      <feComposite in2="blur-8" operator="in"/>
      <feComposite in="SourceGraphic"/>
    </filter>
    <filter id="drop-shadow-9" filterUnits="userSpaceOnUse">
      <feOffset dx="2" dy="1"/>
      <feGaussianBlur result="blur-9" stdDeviation="1"/>
      <feFlood flood-color="#000" flood-opacity=".96"/>
      <feComposite in2="blur-9" operator="in"/>
      <feComposite in="SourceGraphic"/>
    </filter>
  </defs>
  <g id="Layer_1_copy" data-name="Layer 1 copy">
    <g id="Layer_5" data-name="Layer 5">
      <g class="cls-17">
        <path class="cls-10" d="M395.57,647.23l-25.43-20.43c-1.66-1.33-4.09-1.08-5.42.58l-.61.76c-1.33,1.66-1.07,4.09.59,5.43l25.43,20.43c1.66,1.33,4.09,1.07,5.43-.59l.61-.76c1.33-1.66,1.06-4.08-.6-5.42ZM360.15,618.77c-1.87-1.5-4.6-1.21-6.1.66s-1.21,4.6.66,6.1,4.6,1.2,6.1-.66,1.2-4.6-.66-6.1Z"/>
        <path class="cls-13" d="M404.54,650.68c.98-2.3,2.29-4.51,3.94-6.56,1.88-2.34,4.05-4.29,6.44-5.86.78-.51.84-1.63.11-2.22l-48.43-38.92c-.73-.59-1.82-.29-2.15.59-1.01,2.71-2.47,5.3-4.38,7.68-1.49,1.86-3.18,3.48-5,4.85-2.53,1.9-4.89,4.02-6.88,6.5l-1.77,2.2c-2.37,2.95-1.9,7.27,1.05,9.64l41.09,33.02c2.95,2.37,7.27,1.9,9.64-1.05l1.12-1.39c2.09-2.6,3.91-5.42,5.21-8.48ZM354.71,625.53c-1.87-1.5-2.16-4.24-.66-6.1s4.23-2.17,6.1-.66,2.17,4.23.66,6.1-4.24,2.16-6.1.66ZM395.56,653.41c-1.33,1.66-3.77,1.92-5.43.59l-25.43-20.43c-1.66-1.33-1.93-3.77-.59-5.43l.61-.76c1.33-1.66,3.76-1.92,5.42-.58l25.43,20.43c1.66,1.33,1.93,3.76.6,5.42l-.61.76Z"/>
        <path class="cls-29" d="M385.95,664.85l-41.09-33.03c-2.95-2.37-7.26-1.9-9.63,1.05l-5.51,6.85c-2.37,2.95-1.9,7.27,1.04,9.64l41.09,33.03c2.95,2.37,7.27,1.9,9.64-1.05l5.51-6.85c2.37-2.95,1.9-7.26-1.06-9.64ZM338.01,646.32c-1.87-1.5-2.16-4.24-.66-6.1s4.23-2.17,6.1-.66,2.17,4.23.66,6.1-4.24,2.16-6.1.66ZM378.85,674.2c-1.33,1.66-3.77,1.92-5.43.59l-25.43-20.43c-1.66-1.33-1.93-3.77-.59-5.43l.61-.76c1.33-1.66,3.76-1.92,5.42-.58l25.43,20.43c1.66,1.33,1.93,3.76.6,5.42l-.61.76Z"/>
        <path class="cls-1" d="M369.24,685.65l-41.09-33.03c-2.95-2.37-7.26-1.9-9.63,1.05l-5.51,6.85c-2.37,2.95-1.9,7.27,1.04,9.64l41.09,33.03c2.95,2.37,7.27,1.9,9.64-1.05l5.51-6.85c2.37-2.95,1.9-7.26-1.06-9.64ZM321.29,667.12c-1.87-1.5-2.16-4.24-.66-6.1s4.23-2.17,6.1-.66,2.17,4.23.66,6.1-4.24,2.16-6.1.66ZM362.14,694.99c-1.33,1.66-3.77,1.92-5.43.59l-25.43-20.43c-1.66-1.33-1.93-3.77-.59-5.43l.61-.76c1.33-1.66,3.76-1.92,5.42-.58l25.43,20.43c1.66,1.33,1.93,3.76.6,5.42l-.61.76Z"/>
        <path class="cls-28" d="M352.52,706.45l-41.09-33.03c-2.95-2.37-7.26-1.9-9.63,1.05l-5.51,6.85c-2.37,2.95-1.9,7.27,1.04,9.64l41.09,33.03c2.95,2.37,7.27,1.9,9.64-1.05l5.51-6.85c2.37-2.95,1.9-7.26-1.06-9.64ZM304.58,687.92c-1.87-1.5-2.16-4.24-.66-6.1s4.23-2.17,6.1-.66,2.17,4.23.66,6.1-4.24,2.16-6.1.66ZM345.42,715.79c-1.33,1.66-3.77,1.92-5.43.59l-25.43-20.43c-1.66-1.33-1.93-3.77-.59-5.43l.61-.76c1.33-1.66,3.76-1.92,5.42-.58l25.43,20.43c1.66,1.33,1.93,3.76.6,5.42l-.61.76Z"/>
        <path class="cls-16" d="M335.81,727.24l-41.09-33.03c-2.95-2.37-7.26-1.9-9.63,1.05l-5.51,6.85c-2.37,2.95-1.9,7.27,1.04,9.64l41.09,33.03c2.95,2.37,7.27,1.9,9.64-1.05l5.51-6.85c2.37-2.95,1.9-7.26-1.06-9.64ZM287.86,708.71c-1.87-1.5-2.16-4.24-.66-6.1s4.23-2.17,6.1-.66,2.17,4.23.66,6.1-4.24,2.16-6.1.66ZM328.71,736.59c-1.33,1.66-3.77,1.92-5.43.59l-25.43-20.43c-1.66-1.33-1.93-3.77-.59-5.43l.61-.76c1.33-1.66,3.76-1.92,5.42-.58l25.43,20.43c1.66,1.33,1.93,3.76.6,5.42l-.61.76Z"/>
        <path class="cls-23" d="M320.15,757.68c-5.41,6.73-15.25,7.81-21.99,2.39l-27.39-22.01c-6.73-5.41-7.81-15.27-2.39-22,1.18-1.47,2.86-2.32,4.6-2.51s3.56.28,5.03,1.47l41.09,33.03c2.95,2.37,3.42,6.69,1.05,9.64Z"/>
        <path class="cls-27" d="M308.28,795.02c-3.13,3.9-7.55,6.16-12.16,6.65-4.6.51-9.41-.75-13.3-3.88l-44.93-36.11c-8.13-6.53-9.44-18.53-2.9-26.66,1.38-1.71,3.22-3,5.3-3.72l20.21-6.9c-.48,5.72,1.08,12.06,5.67,15.74l30.93,24.86c4.44,3.57,10.76,3.81,16.11,2.31l-1.89,20.21c-.26,2.74-1.31,5.35-3.03,7.49Z"/>
        <path class="cls-19" d="M466.84,658.62c-1.86,2.32-4.67,3.49-7.73,3.52-3.02.04-6.26-1.05-9.02-3.27-1.39-1.11-2.52-2.4-3.37-3.78-2.2-3.52-4.87-6.82-8.19-9.49l-3.86-3.11c-2.88-2.31-6.02-4.24-9.34-5.74-4.16-1.88-4.11-1.09-7.73-4l-49.99-40.18c-3.62-2.91-1.05-1.6-3.78-5.25-2.17-2.91-4.74-5.57-7.61-7.88l-3.86-3.11c-3.31-2.66-7.11-4.56-11.03-5.95-1.53-.54-3.03-1.37-4.42-2.48-2.76-2.22-4.52-5.15-5.13-8.1-.63-3-.08-5.99,1.78-8.31,3.7-4.6,11.19-4.72,16.52-1.24l113.19,90.97c5.79,5.46,7.29,12.81,3.59,17.41Z"/>
        <path class="cls-26" d="M443.84,594.95c-7.47.12-12.54-3.68-10.53-5.44,6.89-6.01,11.53,5.15,13.45,1.74,5.11-9.1-13.65-6.3-10.17-9.41,7.29-6.51,13.04,6.03,17.24,1.73.28-.3,84.15-119.98,136.3-164.32,111.7-94.97,143.95-168.84,148.49-223.74,0,0-8.78,4.78-22.86,12.9-12.34,51.29-50.09,116.22-144,196.07-73.63,62.6-153.26,194.35-153.26,194.35l18.38,14.77s2.13-3.52,6-9.69c-1.38,1.72,6.02-6.42.97-8.97Z"/>
        <path class="cls-2" d="M418.48,598.83l-35.08-28.19c30.94-47.72,69.18-105.22,140.44-217.84,30.3-47.87,143.01-116.23,191.9-144.39-12.34,51.29-50.09,116.22-144,196.07-73.63,62.6-153.26,194.35-153.26,194.35Z"/>
      </g>
      <path class="cls-5" d="M397.01,566.57c42.14-63.88,90.81-137.05,133.55-200.79,15.21-13.63,54.83-48.95,69.64-62.1,0,0,23.25-20.61,23.25-20.61l-23.03,20.86c-14.32,12.95-54.57,49.18-69.21,62.29-42.5,63.96-91.34,136.88-134.21,200.35h0Z"/>
    </g>
  </g>
  <g id="Layer_2" data-name="Layer 2">
    <path class="cls-7" d="M703.71,309.64c-1.33,1.65-2.69,3.32-4.07,4.99,39.62,35.85,68.88,82.94,82.78,136.23h6.64c-14.07-55.3-44.29-104.15-85.35-141.22ZM762.63,645c-45.56,92.02-140.42,155.29-250.06,155.29-62.79,0-120.72-20.75-167.33-55.78-1.7,1.47-3.53,2.79-5.48,3.92,47.95,36.57,107.84,58.28,172.81,58.28,113.29,0,211.16-66.03,257.21-161.71h-7.15ZM512.57,236.14c-133.2,0-245.08,91.29-276.48,214.72h6.63c31.25-119.84,140.22-208.29,269.85-208.29,32.47,0,63.64,5.55,92.62,15.75,2.05-1.53,4.11-3.07,6.19-4.6-30.79-11.37-64.07-17.58-98.81-17.58Z"/>
    <path class="cls-7" d="M703.71,309.64c-1.33,1.65-2.69,3.32-4.07,4.99,39.62,35.85,68.88,82.94,82.78,136.23h6.64c-14.07-55.3-44.29-104.15-85.35-141.22ZM762.63,645c-45.56,92.02-140.42,155.29-250.06,155.29-62.79,0-120.72-20.75-167.33-55.78-1.7,1.47-3.53,2.79-5.48,3.92,47.95,36.57,107.84,58.28,172.81,58.28,113.29,0,211.16-66.03,257.21-161.71h-7.15ZM512.57,236.14c-133.2,0-245.08,91.29-276.48,214.72h6.63c31.25-119.84,140.22-208.29,269.85-208.29,32.47,0,63.64,5.55,92.62,15.75,2.05-1.53,4.11-3.07,6.19-4.6-30.79-11.37-64.07-17.58-98.81-17.58Z"/>
    <path class="cls-20" d="M512.57,178.29c-165.32,0-303.33,116.91-335.87,272.57h32.91c31.96-137.76,155.47-240.43,302.96-240.43,43.96,0,85.79,9.12,123.69,25.58,10.37-7.17,20.86-14.16,31.17-20.86-46.52-23.58-99.14-36.86-154.86-36.86ZM798.04,645c-47.79,110.28-157.62,187.43-285.47,187.43-71.76,0-137.86-24.31-190.48-65.15.97,3.26,1.49,6.71,1.49,10.28,0,9.23-3.47,17.65-9.17,24.03,55.97,39.67,124.34,62.98,198.16,62.98,145.95,0,270.61-91.12,320.21-219.57h-34.74ZM737.38,262.18c-5.33,8.75-11.31,17.74-18,26.98,46.54,41.46,80.53,96.7,95.58,159.3l33.17.96c-15.82-74.11-55.56-139.33-110.75-187.24ZM512.57,236.14c-133.2,0-245.08,91.29-276.48,214.72h6.63c31.25-119.84,140.22-208.29,269.85-208.29,32.47,0,63.64,5.55,92.62,15.75,2.05-1.53,4.11-3.07,6.19-4.6-30.79-11.37-64.07-17.58-98.81-17.58ZM762.63,645c-45.56,92.02-140.42,155.29-250.06,155.29-62.79,0-120.72-20.75-167.33-55.78-1.7,1.47-3.53,2.79-5.48,3.92,47.95,36.57,107.84,58.28,172.81,58.28,113.29,0,211.16-66.03,257.21-161.71h-7.15ZM703.71,309.64c-1.33,1.65-2.69,3.32-4.07,4.99,39.62,35.85,68.88,82.94,82.78,136.23h6.64c-14.07-55.3-44.29-104.15-85.35-141.22Z"/>
    <path class="cls-21" d="M262.09,705.79c-1.49-.19-3.02-.29-4.57-.29-10.59,0-20.11,4.56-26.71,11.83-15.55-22.32-28.51-46.58-38.45-72.33-5.62-14.54-10.28-29.57-13.88-45h33.1c4.04,15.51,9.24,30.54,15.52,45,9.37,21.65,21.14,42.03,34.99,60.79Z"/>
    <path class="cls-22" d="M279.85,675.1c-1.68,1.4-3.23,2.95-4.64,4.64-7.4-11.06-14.03-22.67-19.84-34.74-6.92-14.37-12.67-29.41-17.12-45h6.69c4.57,15.61,10.47,30.65,17.57,45,5.16,10.42,10.95,20.47,17.34,30.1Z"/>
    <g class="cls-4">
      <path class="cls-24" d="M85.19,478.85c13.5,0,25.02,4.77,34.56,14.31,9.54,9.54,14.31,21.06,14.31,34.56s-4.77,25.02-14.31,34.56-21.06,14.31-34.56,14.31h-34.91v-90.77l-6.98-6.98h41.89ZM78.2,548.67h6.98c5.77,0,10.71-2.05,14.8-6.14s6.14-9.03,6.14-14.8-2.05-10.71-6.14-14.8c-4.1-4.1-9.03-6.14-14.8-6.14h-6.98v41.89Z"/>
      <path class="cls-24" d="M185.38,478.85l34.91,97.75h-27.93l-2.3-6.98h-32.89l10.61-27.93h12.92l-9.29-27.93-24.58,62.84-37.57,27.93,46.29-120.87-4.82-4.82h34.63Z"/>
      <path class="cls-24" d="M321.61,604.53l-69.82-58.86-.14-24.93h14.1c4.65,0,6.98-2.33,6.98-6.98s-2.33-6.98-6.98-6.98h-20.95v69.82h-27.93v-90.77l-6.98-6.98h55.86c23.27,0,34.91,11.64,34.91,34.91,0,18.62-4.66,29.12-13.96,31.49l34.91,59.28Z"/>
      <path class="cls-24" d="M339.07,540.5v36.1h-27.93v-90.77l-6.98-6.98h34.91v45.39l6.98-10.47,20.95-34.91h34.91l-31.7,47.55,10.75,18.85,34.91,59.28-76.81-64.03Z"/>
      <path class="cls-12" d="M450.93,576.6c-13.5,0-25.02-4.77-34.56-14.31-9.54-9.54-14.31-21.06-14.31-34.56s4.77-25.02,14.31-34.56,21.06-14.31,34.56-14.31h27.93v27.93h-27.93c-5.77,0-10.71,2.05-14.8,6.14-4.1,4.1-6.14,9.03-6.14,14.8s2.05,10.71,6.14,14.8c4.1,4.1,9.03,6.14,14.8,6.14v-27.93h27.93v83.79l-27.93-27.93Z"/>
      <path class="cls-12" d="M531.64,576.6c-13.5,0-25.02-4.77-34.56-14.31-9.54-9.54-14.31-21.06-14.31-34.56s4.77-25.02,14.31-34.56,21.06-14.31,34.56-14.31,25.02,4.77,34.56,14.31c9.54,9.54,14.31,21.06,14.31,34.56s-4.77,25.02-14.31,34.56-21.06,14.31-34.56,14.31ZM546.45,542.53c4.1-4.1,6.14-9.03,6.14-14.8s-2.05-10.71-6.14-14.8c-4.1-4.1-9.03-6.14-14.8-6.14s-10.71,2.05-14.8,6.14c-4.1,4.1-6.15,9.03-6.15,14.8s2.05,10.71,6.15,14.8c4.1,4.1,9.03,6.14,14.8,6.14s10.71-2.05,14.8-6.14Z"/>
      <path class="cls-12" d="M690.63,604.53l-69.82-58.86-.14-24.93h14.1c4.65,0,6.98-2.33,6.98-6.98s-2.33-6.98-6.98-6.98h-20.95v69.82h-27.93v-90.77l-6.98-6.98h55.86c23.27,0,34.91,11.64,34.91,34.91,0,18.62-4.66,29.12-13.96,31.49l34.91,59.28Z"/>
      <path class="cls-12" d="M708.09,540.5v36.1h-27.93v-90.77l-6.98-6.98h34.91v45.39l6.98-10.47,20.95-34.91h34.91l-31.7,47.55,10.75,18.85,34.91,59.28-76.81-64.03Z"/>
      <path class="cls-12" d="M807.03,478.85v34.91h34.91v-34.91h27.93v97.75h-27.93v-34.91h-34.91v34.91h-27.93v-90.77l-6.98-6.98h34.91Z"/>
      <path class="cls-12" d="M930.34,478.85l34.91,97.75h-27.93l-2.3-6.98h-32.89l10.61-27.93h12.92l-9.29-27.93-24.58,62.84-37.57,27.93,46.29-120.87-4.82-4.82h34.63Z"/>
    </g>
  </g>
</svg>
